<svg width="66" height="66" viewBox="0 0 66 66" fill="none" xmlns="http://www.w3.org/2000/svg">
<rect width="66" height="66" rx="33" fill="#09183B"/>
<path d="M32.5362 17C31.0671 17 29.8165 17.5932 29.0134 18.4966C28.2104 19.4 27.8351 20.5585 27.8351 21.7011C27.8351 22.521 28.1041 23.3154 28.51 24.0516H25.1678C23.2099 24.0516 21.4871 25.3841 20.9962 27.2791L17.1367 42.1659C16.4362 44.8667 18.5181 47.5571 21.3084 47.5571H44.6914C47.4221 47.5571 49.4904 44.978 48.8982 42.3128L45.5897 27.426C45.1527 25.4611 43.396 24.0516 41.3829 24.0516H36.5624C36.9683 23.3154 37.2373 22.521 37.2373 21.7011C37.2373 20.5585 36.862 19.4 36.059 18.4966C35.2559 17.5932 34.0053 17 32.5362 17ZM32.5362 19.3505C33.4176 19.3505 33.9299 19.6388 34.3022 20.0575C34.6744 20.4763 34.8867 21.0808 34.8867 21.7011C34.8867 22.3214 34.6744 22.9259 34.3022 23.3446C33.9299 23.7634 33.4176 24.0516 32.5362 24.0516C31.6547 24.0516 31.1425 23.7634 30.7702 23.3446C30.398 22.9259 30.1856 22.3214 30.1856 21.7011C30.1856 21.0808 30.398 20.4763 30.7702 20.0575C31.1425 19.6388 31.6547 19.3505 32.5362 19.3505ZM32.5362 27.9692C33.1865 27.9692 33.7115 28.4942 33.7115 29.1445V29.5913C34.9259 29.8499 35.9048 30.7274 36.2808 31.9419C36.4689 32.5609 36.1241 33.2182 35.4973 33.414C34.8862 33.6021 34.2209 33.2495 34.0328 32.6305C33.8918 32.1604 33.469 31.847 32.9754 31.847L32.3327 31.8638C31.5805 31.8717 30.9692 32.4905 30.9692 33.2426C30.9692 34.0105 31.5878 34.6291 32.3556 34.6291H33.5003C35.5609 34.6291 37.2373 36.3055 37.2373 38.3661C37.2373 40.3406 35.6703 41.9626 33.7115 42.0802V42.4643C33.7115 43.1146 33.1865 43.6395 32.5362 43.6395C31.8859 43.6395 31.3609 43.1146 31.3609 42.4643V42.0251C30.1543 41.7743 29.1586 40.9058 28.7747 39.6914C28.5788 39.0724 28.9239 38.4135 29.5429 38.2177C30.1619 38.0218 30.8286 38.3669 31.0166 38.9859C31.1655 39.4482 31.5883 39.7617 32.074 39.7617L33.5156 39.7449C34.2678 39.7371 34.8867 39.1183 34.8867 38.3661C34.8867 37.5983 34.2681 36.9797 33.5003 36.9797H32.3556C30.295 36.9797 28.6186 35.3033 28.6186 33.2426C28.6186 31.5424 29.7861 30.1005 31.3609 29.6617V29.1445C31.3609 28.4942 31.8859 27.9692 32.5362 27.9692Z" fill="white"/>
</svg>
