<svg width="21" height="21" viewBox="0 0 21 21" fill="none" xmlns="http://www.w3.org/2000/svg">
<path d="M3.905 20.1983C3.61045 20.1983 3.31713 20.1172 3.05589 19.9557C2.57582 19.6594 2.28944 19.1457 2.28944 18.5817V16.2148C0.599083 14.0748 -0.131436 11.4024 0.230816 8.65998C0.811592 4.2601 4.43057 0.653846 8.83527 0.0856774C11.9378 -0.31483 14.9832 0.701309 17.1941 2.87197C19.405 5.04263 20.4748 8.06531 20.1297 11.1653C19.6296 15.6549 16.0015 19.3484 11.5035 19.948C9.71029 20.1856 7.89672 19.9375 6.23288 19.2254L4.62889 20.0263C4.39911 20.1409 4.15144 20.1983 3.905 20.1983Z" fill="#D7E0EB"/>
</svg>
