<svg xmlns="http://www.w3.org/2000/svg" width="18" height="16" viewBox="0 0 8 6" fill="none">
  <path d="M7.82 3.74C7.82 4.34 7.69333 4.78 7.44 5.06C7.18667 5.34 6.76 5.48 6.16 5.48C5.52 5.48 5.08 5.34 4.84 5.06C4.61333 4.78 4.5 4.34 4.5 3.74V3.58C4.5 2.9 4.52 2.33333 4.56 1.88C4.6 1.41333 4.71333 1.04667 4.9 0.779999C5.08667 0.5 5.36667 0.3 5.74 0.18C6.12667 0.0599998 6.66 0 7.34 0V0.959999H7.18C6.62 0.959999 6.21333 1.03333 5.96 1.18C5.72 1.32667 5.59333 1.62667 5.58 2.08C5.74 2.04 5.93333 2.02 6.16 2.02C6.76 2.02 7.18667 2.16 7.44 2.44C7.69333 2.70667 7.82 3.14 7.82 3.74ZM3.82 3.74C3.82 4.34 3.69333 4.78 3.44 5.06C3.18667 5.34 2.76 5.48 2.16 5.48C1.52 5.48 1.08 5.34 0.84 5.06C0.613333 4.78 0.5 4.34 0.5 3.74C0.5 3.02 0.52 2.42667 0.56 1.96C0.6 1.48 0.706667 1.09333 0.88 0.799999C1.06667 0.506667 1.34667 0.3 1.72 0.18C2.10667 0.0599998 2.64667 0 3.34 0V0.959999H3.18C2.62 0.959999 2.21333 1.03333 1.96 1.18C1.72 1.32667 1.59333 1.62667 1.58 2.08C1.74 2.04 1.93333 2.02 2.16 2.02C2.76 2.02 3.18667 2.16 3.44 2.44C3.69333 2.70667 3.82 3.14 3.82 3.74Z" fill="#1B1D28"/>
</svg>