<svg width="62" height="10" viewBox="0 0 62 10" fill="none" xmlns="http://www.w3.org/2000/svg">
<path d="M2.42065 9.16806C2.38423 9.16806 2.34781 9.14985 2.31139 9.13164C2.25676 9.09522 2.22034 9.00417 2.23855 8.93133L3.03979 5.94486L0.636049 3.99637C0.563209 3.95995 0.544998 3.8689 0.563209 3.79606C0.581419 3.72322 0.65426 3.66859 0.7271 3.66859L3.82283 3.5047L4.93365 0.609276C4.97007 0.554646 5.04291 0.500015 5.11575 0.500015C5.1886 0.500015 5.26144 0.554646 5.27965 0.609276L6.39047 3.5047L9.4862 3.66859C9.55904 3.66859 9.63188 3.72322 9.65009 3.79606C9.6683 3.8689 9.65009 3.94174 9.59546 3.99637L7.19172 5.94486L7.99296 8.93133C8.01117 9.00417 7.99296 9.07701 7.92012 9.13164C7.86549 9.16806 7.77444 9.18627 7.71981 9.13164L5.11575 7.45631L2.5117 9.13164C2.47528 9.16806 2.45707 9.16806 2.42065 9.16806Z" fill="#E29417"/>
<path d="M15.2707 9.16805C15.2343 9.16805 15.1979 9.14984 15.1615 9.13163C15.1069 9.09521 15.0704 9.00416 15.0886 8.93131L15.8899 5.94484L13.4861 3.99636C13.4133 3.95993 13.3951 3.86888 13.4133 3.79604C13.4315 3.7232 13.5044 3.66857 13.5772 3.66857L16.6729 3.50468L17.7838 0.609261C17.8202 0.554631 17.893 0.5 17.9659 0.5C18.0387 0.5 18.1115 0.554631 18.1297 0.609261L19.2406 3.50468L22.3363 3.66857C22.4091 3.66857 22.482 3.7232 22.5002 3.79604C22.5184 3.86888 22.5002 3.94172 22.4456 3.99636L20.0418 5.94484L20.8431 8.93131C20.8613 9.00416 20.8431 9.077 20.7702 9.13163C20.7156 9.16805 20.6245 9.18626 20.5699 9.13163L17.9659 7.45629L15.3618 9.13163C15.3254 9.16805 15.3072 9.16805 15.2707 9.16805Z" fill="#E29417"/>
<path d="M28.1213 9.16805C28.0849 9.16805 28.0485 9.14984 28.0121 9.13163C27.9574 9.09521 27.921 9.00416 27.9392 8.93131L28.7405 5.94484L26.3367 3.99636C26.2639 3.95993 26.2457 3.86888 26.2639 3.79604C26.2821 3.7232 26.3549 3.66857 26.4278 3.66857L29.5235 3.50468L30.6343 0.609261C30.6708 0.554631 30.7436 0.5 30.8164 0.5C30.8893 0.5 30.9621 0.554631 30.9803 0.609261L32.0912 3.50468L35.1869 3.66857C35.2597 3.66857 35.3326 3.7232 35.3508 3.79604C35.369 3.86888 35.3508 3.94172 35.2961 3.99636L32.8924 5.94484L33.6936 8.93131C33.7119 9.00416 33.6936 9.077 33.6208 9.13163C33.5662 9.16805 33.4751 9.18626 33.4205 9.13163L30.8164 7.45629L28.2124 9.13163C28.176 9.16805 28.1578 9.16805 28.1213 9.16805Z" fill="#E29417"/>
<path d="M40.9714 9.16805C40.935 9.16805 40.8986 9.14984 40.8622 9.13163C40.8075 9.09521 40.7711 9.00416 40.7893 8.93131L41.5906 5.94484L39.1868 3.99636C39.114 3.95993 39.0958 3.86888 39.114 3.79604C39.1322 3.7232 39.205 3.66857 39.2779 3.66857L42.3736 3.50468L43.4844 0.609261C43.5209 0.554631 43.5937 0.5 43.6665 0.5C43.7394 0.5 43.8122 0.554631 43.8304 0.609261L44.9412 3.50468L48.037 3.66857C48.1098 3.66857 48.1827 3.7232 48.2009 3.79604C48.2191 3.86888 48.2009 3.94172 48.1462 3.99636L45.7425 5.94484L46.5437 8.93131C46.562 9.00416 46.5437 9.077 46.4709 9.13163C46.4163 9.16805 46.3252 9.18626 46.2706 9.13163L43.6665 7.45629L41.0625 9.13163C41.0261 9.16805 41.0078 9.16805 40.9714 9.16805Z" fill="#E29417"/>
<path d="M53.8215 9.16805C53.7851 9.16805 53.7487 9.14984 53.7123 9.13163C53.6576 9.09521 53.6212 9.00416 53.6394 8.93131L54.4407 5.94484L52.0369 3.99636C51.9641 3.95993 51.9459 3.86888 51.9641 3.79604C51.9823 3.7232 52.0551 3.66857 52.128 3.66857L55.2237 3.50468L56.3345 0.609261C56.371 0.554631 56.4438 0.5 56.5166 0.5C56.5895 0.5 56.6623 0.554631 56.6805 0.609261L57.7913 3.50468L60.8871 3.66857C60.9599 3.66857 61.0328 3.7232 61.051 3.79604C61.0692 3.86888 61.051 3.94172 60.9963 3.99636L58.5926 5.94484L59.3938 8.93131C59.4121 9.00416 59.3938 9.077 59.321 9.13163C59.2664 9.16805 59.1753 9.18626 59.1207 9.13163L56.5166 7.45629L53.9126 9.13163C53.8762 9.16805 53.8579 9.16805 53.8215 9.16805Z" fill="#E29417"/>
</svg>
