<svg width="19" height="21" viewBox="0 0 19 21" fill="none" xmlns="http://www.w3.org/2000/svg">
<path d="M16.5376 0.561278C16.4376 0.521278 16.3476 0.501279 16.2476 0.501279H5.97756C5.56756 0.501279 5.22756 0.841279 5.22756 1.25128C5.22756 1.66128 5.56756 2.00128 5.97756 2.00128H14.4376L1.71756 14.7213C1.42756 15.0113 1.42756 15.4913 1.71756 15.7813C2.00756 16.0713 2.48756 16.0713 2.77756 15.7813L15.4976 3.06128V11.5213C15.4976 11.9313 15.8376 12.2713 16.2476 12.2713C16.6576 12.2713 16.9976 11.9313 16.9976 11.5213V1.25128C16.9976 1.15128 16.9776 1.06128 16.9376 0.961278C16.8676 0.781278 16.7176 0.631278 16.5376 0.561278Z" fill="black"/>
<path d="M17.75 18.9988H0.75C0.34 18.9988 0 19.3388 0 19.7488C0 20.1588 0.34 20.4988 0.75 20.4988H17.75C18.16 20.4988 18.5 20.1588 18.5 19.7488C18.5 19.3388 18.16 18.9988 17.75 18.9988Z" fill="black"/>
</svg>
