<svg width="38" height="39" viewBox="0 0 38 39" fill="none" xmlns="http://www.w3.org/2000/svg">
<circle cx="19" cy="19.7891" r="19" fill="url(#paint0_linear_732_3694)"/>
<path fill-rule="evenodd" clip-rule="evenodd" d="M23.0715 12.1488C23.0715 12.3621 22.9898 12.5667 22.8444 12.7175C22.6989 12.8683 22.5017 12.953 22.296 12.953H19.9695C19.7638 12.953 19.5665 13.0378 19.4211 13.1886C19.2757 13.3394 19.1939 13.544 19.1939 13.7573V16.9742H22.1254C22.2401 16.9742 22.3534 17.0006 22.4571 17.0515C22.5608 17.1024 22.6523 17.1765 22.7251 17.2685C22.7978 17.3605 22.85 17.4681 22.8778 17.5836C22.9056 17.699 22.9083 17.8194 22.8858 17.9361C22.7419 18.6828 22.5463 19.6969 22.4205 20.3488C22.3854 20.5311 22.2904 20.6952 22.1518 20.8131C22.0131 20.9309 21.8394 20.9954 21.6601 20.9954H19.1939V30.6462H15.3164V20.9954H12.9899C12.7842 20.9954 12.5869 20.9106 12.4415 20.7598C12.2961 20.609 12.2144 20.4044 12.2144 20.1911V17.7784C12.2144 17.5651 12.2961 17.3606 12.4415 17.2098C12.5869 17.0589 12.7842 16.9742 12.9899 16.9742H15.3164V13.7573C15.3164 12.4775 15.8066 11.2501 16.6792 10.3452C17.5519 9.44027 18.7354 8.93188 19.9695 8.93188H22.296C22.5017 8.93188 22.6989 9.01662 22.8444 9.16744C22.9898 9.31826 23.0715 9.52282 23.0715 9.73612V12.1488Z" fill="white"/>
<defs>
<linearGradient id="paint0_linear_732_3694" x1="19" y1="0.789062" x2="19" y2="38.7891" gradientUnits="userSpaceOnUse">
<stop stop-color="#090909"/>
<stop offset="1" stop-color="#747474"/>
</linearGradient>
</defs>
</svg>
