<svg width="19" height="20" viewBox="0 0 19 20" fill="none" xmlns="http://www.w3.org/2000/svg">
<path d="M18.4431 10.0935C18.4431 9.46728 18.3825 8.82086 18.2815 8.21484H9.53467V11.7903H14.5444C14.3424 12.9418 13.6758 13.9518 12.686 14.5982L15.6756 16.9213C17.4331 15.2851 18.4431 12.9014 18.4431 10.0935Z" fill="#4280EF"/>
<path d="M9.53469 19.1433C12.0396 19.1433 14.1404 18.3151 15.6757 16.9011L12.686 14.5982C11.8578 15.1638 10.7871 15.487 9.53469 15.487C7.11061 15.487 5.07035 13.8508 4.32293 11.6691L1.25244 14.0326C2.82809 17.1637 6.01978 19.1433 9.53469 19.1433Z" fill="#D11142"/>
<path d="M4.32285 11.6488C3.93904 10.4974 3.93904 9.24497 4.32285 8.09354L1.25236 5.70987C-0.0606816 8.33595 -0.0606816 11.4266 1.25236 14.0325L4.32285 11.6488Z" fill="#F6B704"/>
<path d="M9.53469 4.27571C10.8477 4.25551 12.1406 4.76052 13.09 5.66955L15.7363 3.00307C14.0596 1.42742 11.8376 0.578998 9.53469 0.599199C6.01978 0.599199 2.82809 2.57886 1.25244 5.70995L4.32293 8.09362C5.07035 5.89176 7.11061 4.27571 9.53469 4.27571Z" fill="#E54335"/>
</svg>
