<svg width="66" height="66" viewBox="0 0 66 66" fill="none" xmlns="http://www.w3.org/2000/svg">
<rect width="66" height="66" rx="33" fill="#09183B"/>
<path d="M46.5385 21H19.4615C18.1015 21 17 22.1015 17 23.4615V43.1538C17 44.5138 18.1015 45.6154 19.4615 45.6154H46.5385C47.8985 45.6154 49 44.5138 49 43.1538V23.4615C49 22.1015 47.8985 21 46.5385 21ZM25.6154 43.1538V40.6923H23.1538L26.3563 37.4898C26.4289 37.5932 26.4929 37.7003 26.5742 37.8C27.2794 38.6628 28.2394 39.2302 29.2942 39.4751L25.6154 43.1538ZM35.0862 37.112C34.0954 38.6037 31.9058 38.6037 30.9151 37.112C29.16 37.4665 27.6117 35.9169 27.9649 34.1618C26.4732 33.1711 26.4732 30.9815 27.9649 29.9908C27.6105 28.2357 29.16 26.6874 30.9151 27.0406C31.9058 25.5489 34.0954 25.5489 35.0862 27.0406C36.8412 26.6862 38.3895 28.2357 38.0363 29.9908C39.528 30.9815 39.528 33.1711 38.0363 34.1618C38.3895 35.9182 36.8412 37.4665 35.0862 37.112ZM40.3846 40.6923V43.1538L36.7058 39.4751C37.7606 39.2302 38.7206 38.6615 39.4258 37.8C39.5071 37.7015 39.5711 37.5945 39.6437 37.4898L42.8462 40.6923H40.3846Z" fill="white"/>
</svg>
