<svg width="66" height="66" viewBox="0 0 66 66" fill="none" xmlns="http://www.w3.org/2000/svg">
<rect width="66" height="66" rx="33" fill="#09183B"/>
<path d="M38.6897 30.3448L37.6552 26.2069H40.7586L42.8276 30.3448C42.8276 30.7276 42.931 31.0897 43.1172 31.4C44.131 31.4414 45.0931 31.6897 45.9517 32.1241C46.5621 31.7621 46.9655 31.1 46.9655 30.3448L43.8621 26.2069V22.069C43.8621 20.9207 42.931 20 41.7931 20H23.1724C22.0241 20 21.1034 20.9207 21.1034 22.069V26.2069L18 30.3448C18 31.4828 18.9207 32.4138 20.069 32.4138C21.2172 32.4138 22.1379 31.4828 22.1379 30.3448L24.2069 26.2069H27.3103L26.2759 30.3448C26.2759 31.4828 27.2069 32.4138 28.3448 32.4138C29.4828 32.4138 30.4138 31.4828 30.4138 30.3448V26.2069H34.5517V30.3448C34.5517 31.4828 35.4828 32.4138 36.6207 32.4138C37.7586 32.4138 38.6897 31.4828 38.6897 30.3448ZM24.2069 24.1379C23.6379 24.1379 23.1724 23.6724 23.1724 23.1034C23.1724 22.5345 23.6379 22.069 24.2069 22.069C24.7759 22.069 25.2414 22.5345 25.2414 23.1034C25.2414 23.6724 24.7759 24.1379 24.2069 24.1379ZM28.3448 24.1379C27.7759 24.1379 27.3103 23.6724 27.3103 23.1034C27.3103 22.5345 27.7759 22.069 28.3448 22.069C28.9138 22.069 29.3793 22.5345 29.3793 23.1034C29.3793 23.6724 28.9138 24.1379 28.3448 24.1379ZM23.1724 40.6897V34.4828H21.1034V40.6897C21.1034 41.8276 22.0241 42.7586 23.1724 42.7586H35.2552C35.2552 42.7586 34.469 41.7966 33.9621 40.6897H23.1724ZM42.6414 33.2103C39.6828 33.2103 37.2828 35.7034 37.2828 38.7862C37.2828 42.4586 40.769 44.2069 41.2034 44.6207C41.4931 44.8897 41.7414 45.3655 41.9276 45.8207C42.031 46.069 42.1138 46.3172 42.1655 46.5034C42.2379 46.7621 42.4448 46.8862 42.6414 46.8966C42.8379 46.8862 43.0448 46.7621 43.1172 46.5034C43.169 46.3172 43.2414 46.0793 43.3448 45.8414C43.531 45.3862 43.7897 44.8897 44.0793 44.6207C44.5138 44.2069 48 42.4586 48 38.7862C48 35.7034 45.6 33.2103 42.6414 33.2103ZM42.6414 40.3069C41.8345 40.3069 41.1828 39.6241 41.1828 38.7862C41.1828 37.9483 41.8345 37.2655 42.6414 37.2655C43.4483 37.2655 44.1 37.9483 44.1 38.7862C44.1 39.6241 43.4483 40.3069 42.6414 40.3069Z" fill="white"/>
</svg>
