<svg width="66" height="66" viewBox="0 0 66 66" fill="none" xmlns="http://www.w3.org/2000/svg">
<rect width="66" height="66" rx="33" fill="#09183B"/>
<path d="M20.1429 20C18.9589 20 18 20.9589 18 22.1429V23.2143H45.8571V22.1429C45.8571 20.9589 44.8982 20 43.7143 20H20.1429ZM18 26.4286V39.2857C18 40.4696 18.9589 41.4286 20.1429 41.4286H31.6356C31.1577 40.2479 30.8571 38.915 30.8571 37.4107V34.4643C30.8571 32.8271 31.9102 31.3944 33.4541 30.9047C33.6105 30.8533 37.3157 29.6429 40.5 29.6429C42.3889 29.6429 44.4557 30.0677 45.8571 30.4234V26.4286H18ZM21.2143 28.5714H29.7857V29.6429H21.2143V28.5714ZM40.5 31.7857C37.6232 31.7857 34.1237 32.9388 34.1237 32.9388C33.4734 33.1445 33 33.7464 33 34.4643V37.4107C33 43.8393 39.891 46.6643 39.891 46.6643C40.0796 46.7415 40.2836 46.7857 40.5 46.7857C40.7164 46.7857 40.9204 46.7415 41.109 46.6643C41.109 46.6643 48 43.8393 48 37.4107V34.4643C48 33.7464 47.5266 33.1445 46.8763 32.9388C46.8763 32.9388 43.3768 31.7857 40.5 31.7857Z" fill="white"/>
</svg>
