<svg width="38" height="39" viewBox="0 0 38 39" fill="none" xmlns="http://www.w3.org/2000/svg">
<circle cx="19" cy="19.7891" r="19" fill="url(#paint0_linear_732_3697)"/>
<path d="M24.6002 16.0805C25.1714 16.0805 25.6344 15.6174 25.6344 15.0462C25.6344 14.475 25.1714 14.012 24.6002 14.012C24.029 14.012 23.5659 14.475 23.5659 15.0462C23.5659 15.6174 24.029 16.0805 24.6002 16.0805Z" fill="white"/>
<path fill-rule="evenodd" clip-rule="evenodd" d="M19.4287 16.908C20.0833 16.908 20.7232 17.1021 21.2674 17.4657C21.8117 17.8294 22.2359 18.3463 22.4864 18.951C22.7369 19.5558 22.8024 20.2212 22.6747 20.8632C22.547 21.5052 22.2318 22.0949 21.769 22.5578C21.3061 23.0206 20.7164 23.3359 20.0744 23.4636C19.4324 23.5913 18.767 23.5257 18.1622 23.2752C17.5575 23.0247 17.0406 22.6005 16.6769 22.0563C16.3133 21.512 16.1192 20.8721 16.1192 20.2176C16.1196 19.3399 16.4684 18.4984 17.089 17.8778C17.7096 17.2573 18.5511 16.9084 19.4287 16.908ZM19.4287 15.2532C20.4106 15.2532 21.3704 15.5443 22.1868 16.0898C23.0032 16.6353 23.6395 17.4106 24.0152 18.3178C24.391 19.2249 24.4893 20.2231 24.2977 21.1861C24.1062 22.1491 23.6334 23.0336 22.9391 23.7279C22.2448 24.4222 21.3602 24.895 20.3972 25.0866C19.4342 25.2781 18.4361 25.1798 17.529 24.8041C16.6218 24.4283 15.8465 23.792 15.301 22.9756C14.7555 22.1592 14.4644 21.1994 14.4644 20.2176C14.465 18.9011 14.9882 17.6388 15.9191 16.7079C16.8499 15.777 18.1123 15.2538 19.4287 15.2532Z" fill="white"/>
<path fill-rule="evenodd" clip-rule="evenodd" d="M27.7027 16.0808C27.7027 14.9836 27.2669 13.9314 26.491 13.1556C25.7152 12.3797 24.663 11.9439 23.5658 11.9439H15.2918C14.1946 11.9439 13.1423 12.3797 12.3665 13.1556C11.5907 13.9314 11.1548 14.9836 11.1548 16.0808V24.3548C11.1548 25.452 11.5907 26.5043 12.3665 27.2801C13.1423 28.0559 14.1946 28.4918 15.2918 28.4918H23.5658C24.663 28.4918 25.7152 28.0559 26.491 27.2801C27.2669 26.5043 27.7027 25.452 27.7027 24.3548V16.0808ZM29.3575 16.0808C29.3575 14.5448 28.7473 13.0716 27.6612 11.9854C26.575 10.8993 25.1018 10.2891 23.5658 10.2891H15.2918C13.7557 10.2891 12.2825 10.8993 11.1964 11.9854C10.1102 13.0716 9.5 14.5448 9.5 16.0808V24.3548C9.5 25.8909 10.1102 27.3641 11.1964 28.4502C12.2825 29.5364 13.7557 30.1466 15.2918 30.1466H23.5658C25.1018 30.1466 26.575 29.5364 27.6612 28.4502C28.7473 27.3641 29.3575 25.8909 29.3575 24.3548V16.0808Z" fill="white"/>
<defs>
<linearGradient id="paint0_linear_732_3697" x1="19" y1="0.789062" x2="19" y2="38.7891" gradientUnits="userSpaceOnUse">
<stop stop-color="#090909"/>
<stop offset="1" stop-color="#747474"/>
</linearGradient>
</defs>
</svg>
