<svg width="16" height="16" viewBox="0 0 29 29" fill="none" xmlns="http://www.w3.org/2000/svg">
<path d="M14.5 2.5C15.2223 2.5 15.9375 2.64226 16.6048 2.91866C17.272 3.19506 17.8784 3.60019 18.3891 4.11091C18.8998 4.62164 19.3049 5.22795 19.5813 5.89524C19.8577 6.56253 20 7.27773 20 8V12.5H9V8C9 6.54131 9.57946 5.14236 10.6109 4.11091C11.6424 3.07946 13.0413 2.5 14.5 2.5Z" stroke="#616161" stroke-width="2" stroke-miterlimit="10"/>
<path d="M6 11.5H23C23.5304 11.5 24.0391 11.7107 24.4142 12.0858C24.7893 12.4609 25 12.9696 25 13.5V24.5C25 25.0304 24.7893 25.5391 24.4142 25.9142C24.0391 26.2893 23.5304 26.5 23 26.5H6C5.46957 26.5 4.96086 26.2893 4.58579 25.9142C4.21071 25.5391 4 25.0304 4 24.5V13.5C4 12.9696 4.21071 12.4609 4.58579 12.0858C4.96086 11.7107 5.46957 11.5 6 11.5Z" fill="#616161"/>
</svg>
