<svg height="50" viewBox="0 0 144 70" fill="none" xmlns="http://www.w3.org/2000/svg">
<path d="M88.8682 33.5239C87.4859 33.0941 86.2629 32.4046 85.2306 31.4789C83.1706 29.6274 82.0598 26.9896 82.0217 23.8512C81.9902 21.3621 82.6051 19.1163 83.8483 17.1775C84.1827 16.6556 84.5507 16.1739 84.9524 15.7323C84.2612 14.4004 83.8999 12.8843 83.8797 11.2171C83.8416 8.0125 84.9815 5.233 87.1762 3.18556C89.2609 1.23968 91.9695 0.231311 95.2233 0.186442C96.6303 0.16755 97.9341 0.342302 99.0965 0.703613C100.416 1.11452 101.583 1.77338 102.561 2.66131C103.921 3.89402 105.55 6.1658 105.597 9.99145C105.624 12.1215 105.045 14.084 103.881 15.822C103.706 16.0818 103.524 16.3298 103.329 16.5683C103.331 16.573 103.335 16.5801 103.338 16.5848C104.186 18.082 104.628 19.8579 104.653 21.8699C104.695 25.3342 103.553 28.3593 101.347 30.6193C99.1616 32.8627 96.3364 34.0246 92.9546 34.0694C91.469 34.0883 90.0957 33.9065 88.8682 33.5239Z" fill="white"/>
<path d="M98.0486 16.2259C99.1056 16.7171 99.9044 17.4421 100.447 18.3985C100.991 19.3549 101.269 20.5286 101.287 21.9148C101.318 24.4298 100.555 26.4867 98.9978 28.0831C97.4427 29.6794 95.4141 30.4942 92.912 30.5272C90.5782 30.5579 88.7471 29.9794 87.4186 28.7844C86.0902 27.5919 85.4147 25.9317 85.39 23.804C85.3676 22.0399 85.785 20.4908 86.6399 19.1589C87.4949 17.827 88.6686 16.8824 90.1586 16.3345C89.2139 15.7843 88.4958 15.0758 88.0043 14.2115C87.5129 13.3496 87.2615 12.3341 87.2458 11.1699C87.2189 8.98313 87.9392 7.20491 89.4091 5.83288C90.8789 4.46084 92.8312 3.75947 95.266 3.7264C97.445 3.69807 99.1437 4.23649 100.362 5.34168C101.583 6.44923 102.205 8.01255 102.229 10.034C102.245 11.4084 101.879 12.6576 101.127 13.7794C100.376 14.9011 99.3502 15.7158 98.0486 16.2283V16.2259ZM94.3931 14.5823C94.907 14.5752 95.3356 14.1761 95.6767 13.3826C96.02 12.5915 96.1838 11.6304 96.1704 10.5016C96.1614 9.8073 96.0604 9.31375 95.8674 9.0162C95.6744 8.71865 95.3648 8.57223 94.9406 8.57932C94.4267 8.5864 93.9959 8.9855 93.6481 9.77896C93.3002 10.5724 93.1342 11.5383 93.1476 12.6789C93.1566 13.3378 93.2599 13.8219 93.4596 14.1289C93.6593 14.4382 93.9712 14.5894 94.3953 14.5823H94.3931ZM92.9502 25.4996C93.5089 25.4925 93.969 25.0391 94.3325 24.1417C94.696 23.2443 94.8688 22.1132 94.8531 20.7482C94.8464 20.172 94.7432 19.7398 94.5434 19.447C94.3437 19.1565 94.0498 19.0125 93.6593 19.0172C93.1117 19.0243 92.6562 19.4801 92.2927 20.3845C91.9291 21.289 91.7563 22.4107 91.7721 23.7497C91.7788 24.3259 91.882 24.7628 92.0817 25.0603C92.2815 25.3579 92.5709 25.5043 92.9502 25.4972V25.4996Z" fill="black"/>
<path d="M108.046 33.4721C106.259 32.9148 104.765 31.8356 103.602 30.2628C102.011 28.1115 101.181 25.1596 101.136 21.4921C101.1 18.4387 101.462 15.4089 102.211 12.4853C102.985 9.46494 104.065 6.94284 105.42 4.98515C106.461 3.45488 107.725 2.24579 109.174 1.38856C110.691 0.491184 112.314 0.0236047 113.995 -1.04886e-05C115.085 -0.0141796 116.12 0.127511 117.069 0.425062C118.873 0.987102 120.374 2.07812 121.532 3.67214C123.101 5.83293 123.92 8.80608 123.965 12.5089C124.001 15.5529 123.644 18.552 122.906 21.4213C122.138 24.3921 121.048 26.9142 119.661 28.9167C118.635 30.4139 117.381 31.6136 115.936 32.4803C114.41 33.3965 112.783 33.8735 111.106 33.8972C110.023 33.9113 108.993 33.7696 108.046 33.4744V33.4721Z" fill="white"/>
<path d="M111.064 30.3526C108.997 30.381 107.395 29.6253 106.259 28.0903C105.124 26.5529 104.538 24.3402 104.502 21.4473C104.469 18.708 104.79 16.03 105.461 13.4111C106.132 10.7922 107.029 8.67628 108.149 7.061C108.905 5.94637 109.798 5.08442 110.824 4.47751C111.849 3.8706 112.922 3.55888 114.037 3.54471C116.126 3.51637 117.733 4.27678 118.857 5.82593C119.982 7.37508 120.563 9.61852 120.599 12.5562C120.633 15.2838 120.318 17.9287 119.656 20.4957C118.994 23.0626 118.088 25.1762 116.934 26.8363C116.187 27.9273 115.298 28.7846 114.268 29.4033C113.236 30.022 112.168 30.3408 111.062 30.355L111.064 30.3526ZM110.431 22.4439C110.44 23.091 110.521 23.5703 110.676 23.8868C110.831 24.2032 111.064 24.3567 111.378 24.3544C111.735 24.3496 112.067 24.0875 112.374 23.5656C112.682 23.0437 112.989 22.2007 113.299 21.0317C113.737 19.3692 114.082 17.6429 114.334 15.86C114.585 14.0747 114.704 12.6082 114.69 11.4558C114.681 10.8087 114.596 10.3223 114.43 9.99637C114.264 9.67048 114.019 9.50753 113.696 9.51225C113.328 9.51698 112.998 9.77438 112.709 10.2845C112.419 10.7946 112.125 11.6376 111.827 12.8184C111.378 14.5399 111.03 16.2851 110.783 18.0515C110.537 19.8179 110.42 21.2844 110.436 22.4486L110.431 22.4439Z" fill="black"/>
<path d="M122.547 32.7707C121.604 32.4778 120.632 32.0953 119.656 31.6348C118.099 30.9003 117.309 29.0536 117.821 27.3392L119.609 21.3551C119.773 20.8072 120.058 20.316 120.433 19.9193C120.098 19.1518 120.029 18.2662 120.264 17.4279L124.409 2.78887C124.829 1.30348 126.119 0.278581 127.591 0.259688L139.772 0.096744C140.113 0.0920209 140.45 0.141613 140.77 0.240796C141.372 0.427356 141.917 0.791029 142.341 1.29639C142.99 2.07097 143.286 3.10531 143.149 4.12785L142.397 9.8002C142.204 11.262 141.179 12.4144 139.864 12.7521C141.116 14.424 141.765 16.5282 141.794 19.0266C141.845 23.2254 140.607 26.7275 138.118 29.4315C135.623 32.1425 132.308 33.5429 128.267 33.5972C126.763 33.6161 125.293 33.4626 123.893 33.1414C123.449 33.0375 122.995 32.9147 122.544 32.7754L122.547 32.7707Z" fill="white"/>
<path d="M122.82 22.4178C123.664 22.9822 124.512 23.4073 125.365 23.6883C126.218 23.9717 127.046 24.1063 127.849 24.0969C128.944 24.0827 129.797 23.7686 130.41 23.1546C131.022 22.5406 131.323 21.7047 131.309 20.6467C131.298 19.6478 130.95 18.8968 130.268 18.3938C129.586 17.8908 128.569 17.6499 127.219 17.6665C126.693 17.6736 126.121 17.7397 125.504 17.8648C124.885 17.99 124.214 18.1813 123.491 18.4387L127.636 3.79966L139.817 3.63672L139.065 9.30907L131.442 9.41062L130.365 13.1111C130.755 13.0237 131.123 12.9576 131.469 12.9104C131.814 12.8655 132.155 12.8395 132.49 12.8348C134.321 12.8112 135.764 13.352 136.816 14.4595C137.869 15.5671 138.407 17.1044 138.43 19.0668C138.47 22.3116 137.559 24.9423 135.701 26.959C133.843 28.9758 131.35 30.0077 128.224 30.0479C126.972 30.0644 125.771 29.9393 124.615 29.6724C123.462 29.4056 122.266 28.9805 121.032 28.3972L122.82 22.4131V22.4178Z" fill="black"/>
<path d="M140.236 39.0076H5.76941C4.56661 39.0076 3.59046 40.2025 3.59046 41.6784L0 67.3292C0 68.8122 0.985131 70.0119 2.19691 70.0001L136.662 68.7863C137.761 68.7768 138.684 67.7637 138.811 66.4247L142.404 41.9878C142.555 40.4009 141.542 39.0076 140.239 39.0076H140.236Z" fill="white"/>
<path d="M17.5167 50.4891C17.216 50.3262 16.931 50.2128 16.664 50.1467C16.3969 50.0806 16.1254 50.0499 15.8516 50.0523C14.6601 50.0688 13.7108 50.6804 13.0017 51.8848C12.2926 53.0915 11.9493 54.6832 11.9739 56.6645C11.9897 57.935 12.2185 58.8749 12.6651 59.4818C13.1094 60.0887 13.7826 60.3862 14.6803 60.3744C14.8957 60.3721 15.1313 60.3437 15.3849 60.2918C15.6385 60.2398 15.9055 60.1643 16.1882 60.0651L15.4702 64.7031C15.1223 64.8566 14.7453 64.9723 14.3369 65.0479C13.9307 65.1234 13.464 65.1659 12.9389 65.173C10.8811 65.2014 9.30354 64.5897 8.20172 63.3429C7.0999 62.096 6.53441 60.2705 6.50523 57.8712C6.46035 54.1117 7.24801 51.0748 8.8682 48.7629C10.4884 46.4509 12.6606 45.2749 15.3826 45.2371C15.8831 45.23 16.37 45.2702 16.8457 45.3552C17.3215 45.4402 17.7927 45.5677 18.2617 45.7378L17.519 50.4939L17.5167 50.4891Z" fill="black"/>
<path d="M17.5571 64.7502L24.1815 45.4685L30.1888 45.3882L31.708 64.5613L26.5624 64.6298L26.5535 61.8031L23.5442 61.8432L22.779 64.6794L17.5571 64.7502ZM24.5697 57.9514L26.6051 57.9231L26.5804 50.8102L24.5675 57.9491L24.5697 57.9514Z" fill="black"/>
<path d="M34.3158 58.6221C34.888 59.1133 35.4871 59.4912 36.1155 59.7557C36.7438 60.0178 37.3452 60.1477 37.9197 60.1382C38.4268 60.1311 38.8308 59.98 39.127 59.6825C39.4232 59.3849 39.569 58.9811 39.5623 58.4734C39.5578 58.0341 39.4277 57.602 39.1718 57.1698C38.916 56.74 38.4268 56.1685 37.702 55.4601C36.8246 54.5863 36.2209 53.8141 35.8866 53.1434C35.5522 52.4727 35.3817 51.7312 35.3727 50.9165C35.3503 49.084 35.8843 47.6222 36.9749 46.5312C38.0655 45.4378 39.5556 44.8805 41.4451 44.8545C42.2103 44.8451 42.9396 44.9254 43.633 45.0954C44.3264 45.2654 45.0333 45.5346 45.7536 45.9007L45.0871 50.5906C44.5328 50.1962 43.9943 49.8963 43.4714 49.6932C42.9486 49.4902 42.4504 49.391 41.9746 49.3981C41.5505 49.4028 41.2162 49.5256 40.9738 49.7594C40.7315 49.9955 40.6125 50.3143 40.617 50.7181C40.6237 51.2613 41.104 52.017 42.0554 52.9852C42.1744 53.1056 42.2664 53.2025 42.3337 53.2709C43.2941 54.2392 43.9292 55.0728 44.2389 55.7694C44.5463 56.4661 44.7056 57.2761 44.7169 58.1947C44.7415 60.2445 44.1603 61.8692 42.971 63.0689C41.7817 64.2685 40.1435 64.8825 38.0521 64.9108C37.1612 64.9227 36.3174 64.8235 35.5186 64.6109C34.7197 64.3984 34.0487 64.0985 33.5034 63.7112L34.3158 58.6269V58.6221Z" fill="black"/>
<path d="M46.458 64.3631L49.1217 45.1333L54.2044 45.0648L53.2395 52.0195L55.3377 51.9912L56.2779 45.0365L61.3741 44.968L58.7104 64.1978L53.6277 64.2663L54.66 56.7449L52.5865 56.7732L51.5542 64.2946L46.458 64.3631Z" fill="black"/>
<path d="M72.2419 64.0158L71.829 62.9957C71.0189 63.4987 70.238 63.8694 69.4885 64.1103C68.7367 64.3535 67.9715 64.4787 67.1883 64.4905C65.7073 64.5094 64.5628 64.1268 63.7572 63.3404C62.9516 62.5541 62.5409 61.4253 62.523 59.9517C62.5073 58.6812 62.8394 57.4768 63.5171 56.3362C64.1948 55.1956 65.2428 54.0739 66.661 52.9687C66.3536 52.2886 66.1202 51.658 65.9631 51.0724C65.806 50.4867 65.7252 49.9507 65.7185 49.4595C65.7005 47.9339 66.1606 46.7343 67.0986 45.8582C68.0366 44.982 69.3471 44.5333 71.0301 44.5097C72.3698 44.4908 73.4492 44.8545 74.266 45.596C75.0829 46.3399 75.498 47.3317 75.5137 48.5763C75.5249 49.4429 75.2848 50.2553 74.7934 51.011C74.3019 51.7667 73.4873 52.5743 72.3496 53.4292L73.7836 56.289C74.0977 56.0316 74.3894 55.7482 74.661 55.4412C74.9325 55.1365 75.1995 54.8012 75.4599 54.4375L77.2416 58.1333C76.8803 58.5513 76.5729 58.8984 76.3171 59.1771C76.0613 59.4558 75.8144 59.7084 75.5765 59.9304L77.5625 63.9403L72.2419 64.0111V64.0158ZM68.3418 56.5346C67.9132 56.9266 67.5968 57.2926 67.3926 57.6327C67.1883 57.9727 67.0874 58.301 67.0919 58.6151C67.0963 58.9905 67.2108 59.3023 67.4352 59.5431C67.6596 59.7864 67.9401 59.9044 68.2834 59.8997C68.4989 59.8974 68.73 59.8383 68.9746 59.725C69.2192 59.6116 69.4817 59.4439 69.7623 59.222L68.344 56.5322L68.3418 56.5346ZM70.7564 50.652C71.1266 50.3309 71.4206 49.9955 71.6383 49.6413C71.8537 49.2871 71.9614 48.9754 71.9569 48.7038C71.9524 48.3873 71.8739 48.1535 71.7168 47.9977C71.5597 47.8418 71.3286 47.7663 71.0212 47.771C70.6958 47.7757 70.4377 47.8773 70.2447 48.078C70.0517 48.2787 69.9575 48.5408 69.9597 48.8644C69.962 49.11 70.0248 49.3697 70.1437 49.6437C70.2627 49.9176 70.4669 50.2553 70.7564 50.6544V50.652Z" fill="black"/>
<path d="M79.4297 63.9191L82.0934 44.6893L85.9531 44.6373C88.3834 44.6043 90.1831 45.1758 91.3522 46.3518C92.5191 47.5278 93.1183 49.3651 93.1497 51.8612C93.1722 53.7882 92.9096 55.6538 92.3621 57.4533C91.8123 59.2528 91.0964 60.6413 90.2078 61.6166C89.4852 62.4054 88.6504 62.9721 87.7057 63.3122C86.7609 63.6523 85.2799 63.8388 83.2647 63.8648L79.4297 63.9167V63.9191ZM85.2171 59.1087C85.2507 59.1158 85.2866 59.1229 85.3225 59.1276C85.3607 59.1323 85.4168 59.1323 85.4908 59.1323C85.7915 59.1276 86.0743 59.0497 86.3436 58.8985C86.6128 58.745 86.8372 58.5372 87.0168 58.2704C87.3107 57.8453 87.589 56.9857 87.8471 55.6892C88.1051 54.3928 88.2285 53.1057 88.2128 51.8258C88.2016 50.9922 88.0692 50.3853 87.8089 49.998C87.5508 49.6107 87.1379 49.4005 86.5702 49.3627L85.2148 59.1087H85.2171Z" fill="black"/>
<path d="M93.0352 63.7349L99.6595 44.4531L105.667 44.3728L107.186 63.5459L102.04 63.6144L102.031 60.7877L99.0222 60.8278L98.257 63.664L93.0352 63.7349ZM100.048 56.9361L102.083 56.9077L102.058 49.7948L100.046 56.9337L100.048 56.9361Z" fill="black"/>
<path d="M109.793 57.6068C110.366 58.0979 110.965 58.4758 111.593 58.7403C112.222 59.0024 112.823 59.1323 113.397 59.1228C113.905 59.1158 114.306 58.9646 114.605 58.6671C114.901 58.3695 115.047 57.9657 115.04 57.458C115.036 57.0187 114.905 56.5866 114.65 56.1544C114.394 55.7246 113.905 55.1531 113.18 54.4447C112.302 53.5709 111.699 52.7987 111.364 52.128C111.032 51.4574 110.859 50.7159 110.85 49.9011C110.828 48.0686 111.362 46.6068 112.453 45.5158C113.543 44.4224 115.033 43.8651 116.923 43.8391C117.688 43.8297 118.417 43.91 119.111 44.08C119.804 44.25 120.511 44.5192 121.231 44.8853L120.565 49.5752C120.011 49.1785 119.472 48.881 118.949 48.6755C118.426 48.4701 117.928 48.3732 117.452 48.3803C117.028 48.385 116.694 48.5078 116.452 48.7416C116.209 48.9778 116.09 49.2966 116.095 49.7004C116.101 50.2436 116.582 50.9992 117.533 51.9675C117.652 52.0879 117.744 52.1847 117.811 52.2532C118.772 53.2214 119.407 54.055 119.717 54.7517C120.024 55.4483 120.186 56.2583 120.197 57.177C120.222 59.2267 119.64 60.8515 118.451 62.0511C117.262 63.2508 115.623 63.8648 113.532 63.8931C112.641 63.9049 111.797 63.8057 110.999 63.5932C110.2 63.3807 109.529 63.0807 108.983 62.6935L109.796 57.6091L109.793 57.6068Z" fill="black"/>
<path d="M121.936 63.3475L124.6 44.1177L129.682 44.0492L128.718 51.0039L130.816 50.9755L131.756 44.0209L136.852 43.9524L134.188 63.1822L129.106 63.2507L130.138 55.7293L128.064 55.7576L127.032 63.279L121.936 63.3475Z" fill="black"/>
<mask id="mask0_732_3718" style="mask-type:luminance" maskUnits="userSpaceOnUse" x="5" y="4" width="75" height="30">
<path d="M64.994 19.5509C70.9519 23.4829 75.8058 28.4137 79.0506 33.6468C76.3623 28.0028 72.0672 22.5477 66.5738 17.8884L64.994 19.5509ZM53.895 13.9636C54.6311 14.2305 55.3693 14.5186 56.1099 14.8256C58.6411 15.8788 61.0513 17.1139 63.32 18.4906L65.0658 16.6534C61.9803 14.2139 58.5559 12.0248 54.8577 10.1781L53.895 13.9636ZM15.3941 8.50851C10.8006 11.2644 7.44799 15.3522 5.94898 20.6136C5.50915 22.1581 5.24884 23.745 5.15234 25.3603H17.1893C17.223 25.2139 17.2544 25.0698 17.2903 24.9234C18.3832 20.5593 21.0311 17.1469 24.7473 14.8137L15.3941 8.50615V8.50851ZM36.9885 4.70175C30.1352 3.89647 23.7778 4.68522 18.5717 6.89559L29.2241 12.6931C32.0449 11.7178 35.2224 11.1983 38.6356 11.1676L36.9885 4.69938V4.70175ZM26.7355 16.1574C22.9812 18.3466 20.4746 21.5393 19.7386 25.3626H23.0149C23.7285 22.1769 25.7683 19.4966 28.8112 17.5578L26.7355 16.1574ZM43.4333 13.0969C39.1091 12.7049 35.1371 13.0733 31.7262 14.0557L33.9635 15.2742C37.2824 14.306 41.2005 13.9447 45.527 14.3344C50.4055 14.7736 55.1966 16.1149 59.5163 18.0892C54.7949 15.4372 49.2297 13.6235 43.4333 13.0969ZM51.6353 8.68798C47.3694 6.86725 43.1214 5.64635 39.0216 4.98513L40.6058 11.2054C44.2524 11.3683 48.1278 12.0697 52.0886 13.3449L53.1074 9.34212C52.6204 9.11778 52.1312 8.90052 51.6353 8.69034V8.68798Z" fill="white"/>
</mask>
<g mask="url(#mask0_732_3718)">
<path d="M79.0506 3.89404H5.15234V33.6468H79.0506V3.89404Z" fill="white"/>
</g>
<mask id="mask1_732_3718" style="mask-type:luminance" maskUnits="userSpaceOnUse" x="17" y="7" width="32" height="21">
<path d="M43.2876 25.4995C43.3549 26.3355 43.797 27.1242 44.5398 27.5753C45.7448 28.3073 47.2865 27.8728 47.9821 26.6047C48.6778 25.3365 48.2649 23.7142 47.0598 22.9821C46.317 22.5311 45.4464 22.524 44.726 22.8806L17.1064 7.84717L43.2876 25.5018V25.4995Z" fill="white"/>
</mask>
<g mask="url(#mask1_732_3718)">
<path d="M48.6778 7.84521H17.1064V28.3077H48.6778V7.84521Z" fill="white"/>
</g>
</svg>
