<svg width="146" height="71" viewBox="0 0 146 71" fill="none" xmlns="http://www.w3.org/2000/svg">
<g clip-path="url(#clip0_732_3658)">
<path d="M90.4945 34.313C89.0947 33.8832 87.8562 33.1936 86.8109 32.2679C84.7247 30.4165 83.5999 27.7787 83.5612 24.6402C83.5294 22.1512 84.1521 19.9054 85.411 17.9666C85.7496 17.4447 86.1223 16.963 86.5291 16.5214C85.8292 15.1895 85.4633 13.6734 85.4428 12.0061C85.4042 8.80156 86.5586 6.02206 88.7811 3.97463C90.8922 2.02874 93.6351 1.02037 96.9302 0.975504C98.355 0.956612 99.6754 1.13136 100.853 1.49268C102.189 1.90358 103.37 2.56244 104.361 3.45037C105.738 4.68308 107.388 6.95486 107.436 10.7805C107.463 12.9106 106.877 14.873 105.697 16.6111C105.52 16.8709 105.336 17.1188 105.138 17.3573C105.141 17.3621 105.145 17.3691 105.147 17.3739C106.006 18.8711 106.454 20.6469 106.479 22.6589C106.522 26.1233 105.366 29.1484 103.132 31.4083C100.918 33.6518 98.0574 34.8136 94.6327 34.8585C93.1284 34.8774 91.7376 34.6956 90.4945 34.313Z" fill="#E05101"/>
<path d="M99.7911 17.015C100.861 17.5062 101.67 18.2311 102.22 19.1876C102.77 20.144 103.052 21.3176 103.07 22.7038C103.102 25.2189 102.329 27.2757 100.752 28.8721C99.1775 30.4685 97.1232 31.2832 94.5894 31.3163C92.226 31.347 90.3717 30.7684 89.0264 29.5735C87.6811 28.3809 86.9971 26.7208 86.9721 24.5931C86.9493 22.829 87.372 21.2799 88.2378 19.948C89.1036 18.6161 90.2922 17.6715 91.8011 17.1236C90.8444 16.5734 90.1172 15.8649 89.6195 15.0006C89.1218 14.1386 88.8673 13.1232 88.8514 11.959C88.8241 9.7722 89.5536 7.99398 91.0421 6.62194C92.5305 5.2499 94.5076 4.54853 96.9732 4.51547C99.1798 4.48713 100.9 5.02555 102.134 6.13074C103.37 7.23829 104 8.80162 104.025 10.8231C104.041 12.1975 103.67 13.4467 102.909 14.5684C102.148 15.6901 101.109 16.5049 99.7911 17.0173V17.015ZM96.0892 15.3713C96.6096 15.3643 97.0437 14.9652 97.3891 14.1717C97.7368 13.3806 97.9027 12.4195 97.889 11.2907C97.88 10.5964 97.7777 10.1028 97.5823 9.80526C97.3868 9.50771 97.0732 9.36129 96.6437 9.36838C96.1233 9.37546 95.687 9.77456 95.3348 10.568C94.9825 11.3615 94.8144 12.3274 94.828 13.468C94.8371 14.1268 94.9416 14.6109 95.1439 14.9179C95.3461 15.2273 95.662 15.3784 96.0915 15.3713H96.0892ZM94.628 26.2886C95.1939 26.2815 95.6597 25.8281 96.0279 24.9308C96.396 24.0334 96.571 22.9022 96.5551 21.5373C96.5483 20.9611 96.4438 20.5289 96.2415 20.2361C96.0392 19.9456 95.7416 19.8015 95.3461 19.8063C94.7917 19.8134 94.3303 20.2691 93.9622 21.1736C93.5941 22.078 93.4191 23.1998 93.435 24.5387C93.4418 25.115 93.5463 25.5518 93.7486 25.8494C93.9508 26.1469 94.244 26.2933 94.628 26.2863V26.2886Z" fill="white"/>
<path d="M109.915 34.2612C108.106 33.7038 106.593 32.6246 105.415 31.0519C103.804 28.9005 102.963 25.9486 102.918 22.2812C102.882 19.2278 103.248 16.1979 104.007 13.2744C104.791 10.254 105.884 7.7319 107.256 5.77421C108.311 4.24395 109.59 3.03485 111.058 2.17762C112.594 1.28025 114.237 0.812667 115.939 0.789052C117.044 0.774883 118.091 0.916574 119.053 1.21412C120.88 1.77616 122.4 2.86718 123.573 4.46121C125.161 6.62199 125.99 9.59514 126.036 13.298C126.072 16.342 125.711 19.3411 124.963 22.2103C124.186 25.1811 123.082 27.7032 121.677 29.7058C120.639 31.203 119.368 32.4026 117.905 33.2693C116.36 34.1856 114.712 34.6626 113.015 34.6862C111.917 34.7004 110.874 34.5587 109.915 34.2635V34.2612Z" fill="#E05101"/>
<path d="M112.972 31.1417C110.879 31.17 109.256 30.4143 108.106 28.8793C106.957 27.342 106.363 25.1293 106.327 22.2364C106.293 19.4971 106.618 16.8191 107.297 14.2002C107.977 11.5813 108.886 9.46534 110.02 7.85007C110.786 6.73543 111.69 5.87348 112.729 5.26657C113.767 4.65966 114.853 4.34794 115.983 4.33377C118.099 4.30543 119.726 5.06584 120.864 6.61499C122.003 8.16415 122.591 10.4076 122.628 13.3453C122.662 16.0729 122.344 18.7178 121.673 21.2847C121.003 23.8517 120.085 25.9652 118.917 27.6254C118.16 28.7164 117.26 29.5736 116.217 30.1924C115.172 30.8111 114.09 31.1299 112.97 31.144L112.972 31.1417ZM112.331 23.233C112.34 23.88 112.422 24.3594 112.579 24.6759C112.736 24.9923 112.972 25.1458 113.29 25.1434C113.651 25.1387 113.988 24.8766 114.299 24.3547C114.61 23.8328 114.922 22.9897 115.235 21.8208C115.678 20.1583 116.028 18.432 116.283 16.6491C116.537 14.8638 116.658 13.3973 116.644 12.2448C116.635 11.5978 116.549 11.1113 116.381 10.7854C116.212 10.4595 115.965 10.2966 115.637 10.3013C115.265 10.306 114.931 10.5634 114.638 11.0735C114.344 11.5836 114.047 12.4267 113.744 13.6074C113.29 15.329 112.938 17.0741 112.688 18.8406C112.438 20.607 112.32 22.0735 112.336 23.2377L112.331 23.233Z" fill="white"/>
<path d="M124.6 33.5597C123.645 33.2669 122.661 32.8843 121.673 32.4238C120.096 31.6894 119.296 29.8427 119.814 28.1282L121.625 22.1442C121.791 21.5963 122.08 21.1051 122.459 20.7084C122.12 19.9409 122.05 19.0553 122.289 18.217L126.486 3.57793C126.911 2.09254 128.218 1.06764 129.708 1.04875L142.043 0.885806C142.389 0.881083 142.73 0.930675 143.055 1.02986C143.664 1.21642 144.216 1.58009 144.645 2.08546C145.302 2.86003 145.602 3.89438 145.463 4.91691L144.702 10.5893C144.507 12.051 143.468 13.2035 142.136 13.5412C143.404 15.2131 144.061 17.3172 144.091 19.8157C144.143 24.0145 142.889 27.5166 140.368 30.2205C137.841 32.9315 134.485 34.3319 130.392 34.3862C128.87 34.4051 127.381 34.2516 125.963 33.9305C125.513 33.8266 125.054 33.7038 124.597 33.5644L124.6 33.5597Z" fill="#E05101"/>
<path d="M124.877 23.2069C125.732 23.7713 126.591 24.1964 127.454 24.4774C128.318 24.7608 129.156 24.8954 129.97 24.8859C131.079 24.8718 131.942 24.5577 132.563 23.9437C133.183 23.3297 133.488 22.4937 133.474 21.4358C133.463 20.4368 133.11 19.6859 132.419 19.1829C131.729 18.6799 130.699 18.439 129.331 18.4555C128.799 18.4626 128.22 18.5287 127.595 18.6539C126.968 18.7791 126.288 18.9703 125.557 19.2278L129.754 4.58873L142.089 4.42578L141.328 10.0981L133.608 10.1997L132.517 13.9002C132.913 13.8128 133.285 13.7467 133.635 13.6994C133.985 13.6546 134.331 13.6286 134.669 13.6239C136.524 13.6003 137.985 14.1411 139.051 15.2486C140.116 16.3562 140.662 17.8935 140.684 19.8559C140.725 23.1006 139.803 25.7314 137.921 27.7481C136.039 29.7648 133.515 30.7968 130.349 30.837C129.081 30.8535 127.865 30.7283 126.695 30.4615C125.527 30.1946 124.316 29.7695 123.066 29.1863L124.877 23.2022V23.2069Z" fill="white"/>
<path d="M142.514 39.7966H6.34254C5.12449 39.7966 4.13596 40.9916 4.13596 42.4675L0.5 68.1183C0.5 69.6013 1.49762 70.801 2.72476 70.7891L138.894 69.5753C140.007 69.5659 140.941 68.5528 141.071 67.2138L144.709 42.7769C144.861 41.1899 143.837 39.7966 142.516 39.7966H142.514Z" fill="url(#paint0_linear_732_3658)"/>
<path d="M18.2388 51.2782C17.9343 51.1153 17.6457 51.0019 17.3753 50.9358C17.1049 50.8697 16.8299 50.839 16.5526 50.8413C15.346 50.8578 14.3847 51.4695 13.6666 52.6739C12.9485 53.8806 12.6008 55.4722 12.6258 57.4536C12.6417 58.724 12.8735 59.6639 13.3257 60.2708C13.7757 60.8778 14.4574 61.1753 15.3664 61.1635C15.5846 61.1611 15.8232 61.1328 16.08 61.0808C16.3368 61.0289 16.6072 60.9533 16.8935 60.8541L16.1663 65.4921C15.8141 65.6456 15.4323 65.7614 15.0187 65.8369C14.6074 65.9125 14.1347 65.955 13.603 65.9621C11.5191 65.9904 9.92156 65.3788 8.80577 64.1319C7.68998 62.885 7.11732 61.0596 7.08778 58.6603C7.04233 54.9008 7.83997 51.8639 9.48069 49.5519C11.1214 47.24 13.3212 46.064 16.0777 46.0262C16.5845 46.0191 17.0776 46.0592 17.5594 46.1443C18.0411 46.2293 18.5183 46.3568 18.9933 46.5268L18.2411 51.2829L18.2388 51.2782Z" fill="white"/>
<path d="M18.2798 65.5393L24.9881 46.2575L31.0716 46.1772L32.61 65.3504L27.3992 65.4189L27.3901 62.5921L24.3428 62.6323L23.5678 65.4685L18.2798 65.5393ZM25.3813 58.7405L27.4424 58.7122L27.4174 51.5993L25.379 58.7381L25.3813 58.7405Z" fill="white"/>
<path d="M35.2504 59.4112C35.8299 59.9024 36.4366 60.2802 37.0729 60.5447C37.7092 60.8068 38.3182 60.9367 38.9 60.9273C39.4135 60.9202 39.8226 60.7691 40.1226 60.4715C40.4225 60.174 40.5702 59.7701 40.5634 59.2624C40.5589 58.8232 40.4271 58.391 40.168 57.9589C39.9089 57.5291 39.4135 56.9576 38.6795 56.2491C37.791 55.3754 37.1797 54.6032 36.8411 53.9325C36.5025 53.2618 36.3298 52.5203 36.3207 51.7056C36.298 49.873 36.8388 48.4113 37.9433 47.3202C39.0477 46.2269 40.5566 45.6695 42.47 45.6436C43.2449 45.6341 43.9835 45.7144 44.6857 45.8844C45.3879 46.0545 46.1037 46.3237 46.8332 46.6897L46.1583 51.3797C45.597 50.9853 45.0516 50.6854 44.5221 50.4823C43.9926 50.2792 43.4881 50.18 43.0063 50.1871C42.5768 50.1918 42.2382 50.3146 41.9928 50.5484C41.7474 50.7846 41.6269 51.1034 41.6315 51.5072C41.6383 52.0504 42.1246 52.806 43.0881 53.7743C43.2086 53.8947 43.3018 53.9915 43.3699 54.06C44.3426 55.0282 44.9857 55.8618 45.2993 56.5585C45.6106 57.2551 45.7719 58.0651 45.7833 58.9838C45.8083 61.0336 45.2197 62.6583 44.0153 63.8579C42.8109 65.0576 41.152 65.6716 39.034 65.6999C38.1319 65.7117 37.2774 65.6125 36.4684 65.4C35.6594 65.1875 34.9799 64.8875 34.4277 64.5003L35.2504 59.4159V59.4112Z" fill="white"/>
<path d="M47.5469 65.1522L50.2443 45.9224L55.3915 45.8539L54.4143 52.8086L56.5391 52.7802L57.4912 45.8256L62.652 45.7571L59.9546 64.9869L54.8074 65.0554L55.8528 57.5339L53.753 57.5623L52.7077 65.0837L47.5469 65.1522Z" fill="white"/>
<path d="M73.6576 64.8049L73.2394 63.7847C72.4191 64.2877 71.6283 64.6585 70.8693 64.8994C70.108 65.1426 69.3331 65.2678 68.54 65.2796C67.0401 65.2985 65.8812 64.9159 65.0653 64.1295C64.2495 63.3431 63.8337 62.2143 63.8155 60.7407C63.7996 59.4702 64.1359 58.2659 64.8222 57.1253C65.5085 55.9846 66.5697 54.8629 68.0059 53.7577C67.6946 53.0776 67.4583 52.4471 67.2992 51.8614C67.1401 51.2758 67.0583 50.7397 67.0515 50.2485C67.0333 48.723 67.4992 47.5233 68.4491 46.6472C69.399 45.7711 70.7261 45.3224 72.4304 45.2988C73.7871 45.2799 74.8802 45.6436 75.7074 46.3851C76.5345 47.129 76.955 48.1208 76.9709 49.3653C76.9822 50.232 76.7391 51.0444 76.2414 51.8C75.7437 52.5557 74.9188 53.3634 73.7667 54.2182L75.2188 57.078C75.5369 56.8206 75.8323 56.5372 76.1073 56.2302C76.3823 55.9256 76.6527 55.5903 76.9163 55.2266L78.7207 58.9224C78.3548 59.3404 78.0435 59.6875 77.7844 59.9662C77.5253 60.2448 77.2754 60.4975 77.0345 60.7195L79.0456 64.7293L73.6576 64.8002V64.8049ZM69.708 57.3236C69.274 57.7156 68.9536 58.0817 68.7468 58.4217C68.54 58.7618 68.4377 59.09 68.4422 59.4041C68.4468 59.7796 68.5627 60.0913 68.7899 60.3322C69.0172 60.5754 69.3012 60.6935 69.6489 60.6888C69.8671 60.6864 70.1012 60.6274 70.3489 60.514C70.5966 60.4007 70.8624 60.233 71.1465 60.011L69.7103 57.3213L69.708 57.3236ZM72.1532 51.4411C72.5282 51.1199 72.8259 50.7846 73.0463 50.4304C73.2644 50.0761 73.3735 49.7644 73.369 49.4928C73.3644 49.1764 73.2849 48.9426 73.1258 48.7868C72.9667 48.6309 72.7327 48.5553 72.4214 48.56C72.0918 48.5648 71.8305 48.6663 71.6351 48.867C71.4396 49.0678 71.3442 49.3299 71.3465 49.6534C71.3487 49.899 71.4124 50.1588 71.5328 50.4327C71.6533 50.7067 71.8601 51.0444 72.1532 51.4435V51.4411Z" fill="white"/>
<path d="M80.9365 64.7082L83.634 45.4784L87.5426 45.4264C90.0037 45.3933 91.8262 45.9648 93.0102 47.1409C94.1919 48.3169 94.7986 50.1542 94.8305 52.6503C94.8532 54.5773 94.5873 56.4429 94.0328 58.2423C93.4761 60.0418 92.7511 61.4304 91.8512 62.4057C91.1195 63.1944 90.2741 63.7612 89.3174 64.1013C88.3607 64.4413 86.8609 64.6279 84.8202 64.6539L80.9365 64.7058V64.7082ZM86.7972 59.8978C86.8313 59.9048 86.8677 59.9119 86.9041 59.9167C86.9427 59.9214 86.9995 59.9214 87.0745 59.9214C87.379 59.9167 87.6653 59.8387 87.938 59.6876C88.2107 59.5341 88.438 59.3263 88.6198 59.0594C88.9175 58.6344 89.1993 57.7748 89.4606 56.4783C89.7219 55.1818 89.8469 53.8948 89.831 52.6149C89.8196 51.7812 89.6856 51.1743 89.422 50.787C89.1606 50.3998 88.7425 50.1896 88.1675 50.1518L86.795 59.8978H86.7972Z" fill="white"/>
<path d="M94.7144 64.5239L101.423 45.2422L107.506 45.1619L109.045 64.335L103.834 64.4035L103.825 61.5767L100.777 61.6169L100.002 64.4531L94.7144 64.5239ZM101.816 57.7251L103.877 57.6968L103.852 50.5839L101.814 57.7228L101.816 57.7251Z" fill="white"/>
<path d="M111.686 58.3958C112.265 58.887 112.872 59.2649 113.508 59.5293C114.144 59.7915 114.753 59.9214 115.335 59.9119C115.849 59.9048 116.256 59.7537 116.558 59.4561C116.858 59.1586 117.005 58.7548 116.999 58.247C116.994 57.8078 116.862 57.3756 116.603 56.9435C116.344 56.5137 115.849 55.9422 115.115 55.2337C114.226 54.36 113.615 53.5878 113.276 52.9171C112.94 52.2464 112.765 51.5049 112.756 50.6902C112.733 48.8577 113.274 47.3959 114.378 46.3049C115.483 45.2115 116.992 44.6542 118.905 44.6282C119.68 44.6187 120.419 44.699 121.121 44.8691C121.823 45.0391 122.539 45.3083 123.268 45.6743L122.593 50.3643C122.032 49.9676 121.487 49.67 120.957 49.4646C120.428 49.2591 119.923 49.1623 119.442 49.1694C119.012 49.1741 118.673 49.2969 118.428 49.5307C118.183 49.7668 118.062 50.0856 118.067 50.4895C118.074 51.0326 118.56 51.7883 119.523 52.7565C119.644 52.877 119.737 52.9738 119.805 53.0423C120.778 54.0105 121.421 54.8441 121.734 55.5407C122.046 56.2374 122.209 57.0474 122.221 57.966C122.246 60.0158 121.657 61.6405 120.453 62.8402C119.248 64.0398 117.589 64.6538 115.472 64.6822C114.569 64.694 113.715 64.5948 112.906 64.3823C112.097 64.1697 111.417 63.8698 110.865 63.4825L111.688 58.3982L111.686 58.3958Z" fill="white"/>
<path d="M123.982 64.1366L126.679 44.9068L131.827 44.8383L130.849 51.7929L132.974 51.7646L133.926 44.8099L139.087 44.7415L136.39 63.9713L131.243 64.0397L132.288 56.5183L130.188 56.5467L129.143 64.0681L123.982 64.1366Z" fill="white"/>
<mask id="mask0_732_3658" style="mask-type:luminance" maskUnits="userSpaceOnUse" x="5" y="5" width="76" height="30">
<path d="M66.3179 20.34C72.3514 24.2719 77.2667 29.2028 80.5527 34.4359C77.8303 28.7919 73.4808 23.3368 67.9178 18.6775L66.3179 20.34ZM55.0783 14.7527C55.8236 15.0195 56.5713 15.3076 57.3212 15.6146C59.8846 16.6679 62.3252 17.9029 64.6227 19.2797L66.3907 17.4424C63.266 15.003 59.7982 12.8139 56.0532 10.9672L55.0783 14.7527ZM16.0894 9.29757C11.4376 12.0535 8.04252 16.1412 6.5245 21.4027C6.0791 22.9471 5.81549 24.5341 5.71777 26.1493H17.9073C17.9414 26.0029 17.9732 25.8589 18.0096 25.7125C19.1163 21.3484 21.7978 17.936 25.5611 15.6028L16.0894 9.29521V9.29757ZM37.9574 5.49081C31.0173 4.68553 24.5793 5.47428 19.3072 7.68465L30.0946 13.4822C32.9511 12.5069 36.169 11.9873 39.6254 11.9566L37.9574 5.48845V5.49081ZM27.5745 16.9465C23.7726 19.1356 21.2343 22.3284 20.4889 26.1517H23.8067C24.5293 22.966 26.595 20.2857 29.6765 18.3469L27.5745 16.9465ZM44.484 13.886C40.1049 13.494 36.0826 13.8624 32.6285 14.8448L34.8941 16.0633C38.2551 15.0951 42.2229 14.7338 46.6042 15.1234C51.5446 15.5627 56.3963 16.904 60.7708 18.8782C55.9895 16.2263 50.3538 14.4126 44.484 13.886ZM52.7899 9.47704C48.4699 7.65632 44.1681 6.43541 40.0163 5.77419L41.6207 11.9944C45.3134 12.1574 49.238 12.8587 53.2489 14.1339L54.2806 10.1312C53.7875 9.90684 53.2921 9.68958 52.7899 9.47941V9.47704Z" fill="white"/>
</mask>
<g mask="url(#mask0_732_3658)">
<path d="M80.5527 4.68311H5.71777V34.4358H80.5527V4.68311Z" fill="#E05101"/>
</g>
<mask id="mask1_732_3658" style="mask-type:luminance" maskUnits="userSpaceOnUse" x="17" y="8" width="33" height="21">
<path d="M44.3362 26.2885C44.4044 27.1245 44.8521 27.9133 45.6043 28.3643C46.8246 29.0964 48.3858 28.6619 49.0903 27.3937C49.7947 26.1256 49.3766 24.5032 48.1563 23.7712C47.4041 23.3201 46.5224 23.313 45.7929 23.6696L17.8232 8.63623L44.3362 26.2909V26.2885Z" fill="white"/>
</mask>
<g mask="url(#mask1_732_3658)">
<path d="M49.7947 8.63428H17.8232V29.0968H49.7947V8.63428Z" fill="url(#paint1_linear_732_3658)"/>
</g>
</g>
<defs>
<linearGradient id="paint0_linear_732_3658" x1="0.5" y1="55.2929" x2="144.723" y2="55.2929" gradientUnits="userSpaceOnUse">
<stop stop-color="#E05101"/>
<stop offset="1" stop-color="#E29417"/>
</linearGradient>
<linearGradient id="paint1_linear_732_3658" x1="47.7631" y1="31.3615" x2="25.0001" y2="12.4847" gradientUnits="userSpaceOnUse">
<stop stop-color="#E05101"/>
<stop offset="1" stop-color="#F9B235"/>
</linearGradient>
<clipPath id="clip0_732_3658">
<rect width="145" height="70" fill="white" transform="translate(0.5 0.789062)"/>
</clipPath>
</defs>
</svg>
