<svg width="21" height="21" viewBox="0 0 21 21" fill="none" xmlns="http://www.w3.org/2000/svg">
<path d="M20.3436 0.17338C20.1761 0.00591633 19.9247 -0.045605 19.7049 0.0424073L0.675981 7.64823C0.458213 7.73522 0.312417 7.94245 0.304087 8.17662C0.295757 8.4108 0.426512 8.62785 0.637449 8.73006L8.14114 12.3666L11.7804 19.8647C11.8797 20.0693 12.0869 20.1982 12.3131 20.1982C12.3201 20.1982 12.3272 20.1981 12.3343 20.1979C12.5686 20.1895 12.776 20.0438 12.863 19.8263L20.4747 0.811598C20.5627 0.591823 20.5111 0.340765 20.3436 0.17338Z" fill="#B0C2D9" fill-opacity="0.5"/>
<path d="M20.3435 0.173401L8.14111 12.3666L11.7804 19.8647C11.8796 20.0692 12.0869 20.1982 12.3131 20.1982C12.3201 20.1982 12.3272 20.1981 12.3342 20.1978C12.5686 20.1895 12.7759 20.0438 12.863 19.8263L20.4746 0.811618C20.5626 0.591844 20.511 0.340786 20.3435 0.173401Z" fill="#D7E0EB"/>
</svg>
